<?xml version="1.0" encoding="UTF-8"?>
<svg id="Layer_1" xmlns="http://www.w3.org/2000/svg" viewBox="0 0 381.71 310.89">
  <defs>
    <style>
      .cls-1 {
        fill: none;
        stroke: #000;
      }

      .cls-1, .cls-2 {
        stroke-miterlimit: 10;
      }

      .cls-2 {
        stroke: #fff;
      }

      .cls-2, .cls-3 {
        fill: #fff;
      }

      .cls-4 {
        opacity: .8;
      }

      .cls-5 {
        font-family: Arial-Black, Arial;
        font-size: 40px;
        font-weight: 800;
      }

      .cls-6 {
        opacity: .7;
      }
    </style>
  </defs>
  <g>
    <rect x="230.71" y="265.75" width="35" height="36"/>
    <g>
      <polygon class="cls-1" points="230.71 301.75 195.71 301.75 195.71 265.75 230.71 265.75 265.71 265.75 265.71 301.75 230.71 301.75"/>
      <line class="cls-1" x1="230.71" y1="265.75" x2="230.71" y2="301.75"/>
    </g>
  </g>
  <g>
    <g class="cls-6">
      <g>
        <rect x="334.43" y=".25" width="33.78" height="201"/>
        <rect class="cls-3" x="300.65" y=".25" width="33.78" height="201"/>
        <rect x="266.88" y=".25" width="33.77" height="201"/>
        <rect class="cls-3" x="233.1" y=".25" width="33.78" height="201"/>
        <rect x="199.32" y=".25" width="33.78" height="201"/>
        <rect class="cls-3" x="165.54" y=".25" width="33.78" height="201"/>
        <rect x="131.77" y=".25" width="33.77" height="201"/>
        <rect class="cls-3" x="97.99" y=".25" width="33.78" height="201"/>
        <rect x="64.21" y=".25" width="33.78" height="201"/>
      </g>
    </g>
    <g class="cls-4">
      <g>
        <rect x="312.47" y="29.2" width="33.78" height="201"/>
        <rect class="cls-3" x="278.69" y="29.2" width="33.78" height="201"/>
        <rect x="244.92" y="29.2" width="33.77" height="201"/>
        <rect class="cls-3" x="211.14" y="29.2" width="33.78" height="201"/>
        <rect x="177.36" y="29.2" width="33.78" height="201"/>
        <rect class="cls-3" x="143.58" y="29.2" width="33.78" height="201"/>
        <rect x="109.8" y="29.2" width="33.78" height="201"/>
        <rect class="cls-3" x="76.03" y="29.2" width="33.77" height="201"/>
        <rect x="42.25" y="29.2" width="33.78" height="201"/>
      </g>
    </g>
    <g>
      <rect x="270.47" y="59.2" width="33.78" height="201"/>
      <rect class="cls-3" x="236.69" y="59.2" width="33.78" height="201"/>
      <rect x="202.92" y="59.2" width="33.77" height="201"/>
      <rect class="cls-3" x="169.14" y="59.2" width="33.78" height="201"/>
      <rect x="135.36" y="59.2" width="33.78" height="201"/>
      <rect class="cls-3" x="101.58" y="59.2" width="33.78" height="201"/>
      <rect x="67.8" y="59.2" width="33.78" height="201"/>
      <rect class="cls-3" x="34.03" y="59.2" width="33.77" height="201"/>
      <rect x=".25" y="59.2" width="33.78" height="201"/>
    </g>
  </g>
  <text class="cls-5" transform="translate(51.78 298.62)"><tspan x="0" y="0">Phase </tspan><tspan x="146.7" y="0">A</tspan><tspan class="cls-2" x="177.81" y="0">M</tspan></text>
</svg>